<svg width="296" height="296" viewBox="0 0 296 296" fill="none" xmlns="http://www.w3.org/2000/svg">
<style>
  path { fill: #000; }
  @media (prefers-color-scheme: dark) {
    path { fill: #fff; }
  }
</style>
<path d="M169.818 222.467C191.55 222.467 209.167 238.928 209.167 259.233C209.167 279.539 191.55 296 169.818 296C148.087 296 130.471 279.539 130.471 259.233C130.471 255.466 131.077 251.83 132.204 248.407C135.289 254.791 142.162 259.233 150.145 259.233C161.01 259.233 169.818 251.002 169.818 240.85C169.818 233.391 165.065 226.969 158.233 224.087C161.896 223.034 165.786 222.467 169.818 222.467Z"/>
<path d="M286.198 188.766C174.003 153.41 47.5386 185.82 9.40234 206.444C182.861 112.638 83.2145 37.5238 120.121 0.204346L286.198 188.766Z"/>
</svg>
